<?xml version="1.0" encoding="UTF-8"?>
<svg version="1.1" xmlns="http://www.w3.org/2000/svg" width="487" height="450">
<path d="M0 0 C1.23059715 -0.00367669 2.46119431 -0.00735338 3.72908229 -0.01114148 C7.13320613 -0.02023294 10.53728191 -0.02487022 13.94141328 -0.02753079 C17.61788637 -0.03144876 21.29434569 -0.0410261 24.97080994 -0.04974365 C33.84458349 -0.06946751 42.71835811 -0.07956975 51.5921481 -0.08847144 C55.77832823 -0.09286161 59.96450711 -0.09822658 64.15068626 -0.10346031 C78.07961292 -0.12046961 92.00853881 -0.1349612 105.93747425 -0.14220905 C109.54870416 -0.14411873 113.15993406 -0.14603909 116.77116394 -0.147995 C118.11737821 -0.14872061 118.11737821 -0.14872061 119.49078872 -0.14946087 C134.01174129 -0.1577516 148.53261122 -0.18307366 163.05352775 -0.21557567 C177.98582178 -0.24872397 192.91807393 -0.26666487 207.85040492 -0.26985329 C216.22456947 -0.27201137 224.59861356 -0.28065632 232.97274208 -0.30631447 C240.10830318 -0.32812806 247.24371456 -0.33601998 254.37930522 -0.32634769 C258.01300404 -0.32183339 261.64639466 -0.3235191 265.28005028 -0.34310913 C300.1889496 -0.52081263 328.64316957 7.24572722 354.02629089 32.08467102 C372.52614986 50.69609872 382.9282609 76.87556863 382.92346191 102.96621704 C382.9271386 104.04572276 382.93081529 105.12522848 382.93460339 106.23744649 C382.94560397 109.84969351 382.94947796 113.46191173 382.95329285 117.07417297 C382.95956036 119.66665742 382.96620742 122.25914096 382.97320557 124.85162354 C382.99291899 132.62787092 383.0030305 140.40411951 383.01193336 148.18038562 C383.0163254 151.85053531 383.02168988 155.52068357 383.02692223 159.19083214 C383.04393077 171.40580222 383.05842167 183.62077144 383.06567097 195.83575153 C383.06758058 199.0018139 383.06950096 202.16787626 383.07145691 205.3339386 C383.07194065 206.12076203 383.07242439 206.90758546 383.07292279 207.71825203 C383.08121096 220.44474911 383.10652899 233.17115183 383.13903759 245.89760778 C383.17220635 258.99024184 383.19012863 272.08282812 383.19331521 285.17550439 C383.19547145 292.51568628 383.20408896 299.85573065 383.22977638 307.19587135 C383.2539165 314.10948719 383.25724786 321.02285305 383.247015 327.93650246 C383.24652205 330.46228355 383.25277051 332.98807721 383.26657104 335.51382065 C383.44017203 369.19344937 374.68124945 397.03236617 350.83879089 421.39717102 C331.68807098 440.43308933 305.27890771 450.29864055 278.55258179 450.29434204 C277.32198463 450.29801873 276.09138748 450.30169542 274.8234995 450.30548352 C271.41937566 450.31457498 268.01529988 450.31921226 264.6111685 450.32187283 C260.93469542 450.3257908 257.2582361 450.33536814 253.58177185 450.34408569 C244.7079983 450.36380955 235.83422367 450.37391179 226.96043369 450.38281348 C222.77425356 450.38720366 218.58807467 450.39256862 214.40189552 450.39780235 C200.47296887 450.41481165 186.54404298 450.42930324 172.61510754 450.43655109 C169.00387763 450.43846077 165.39264773 450.44038113 161.78141785 450.44233704 C160.88394167 450.44282078 159.98646549 450.44330452 159.06179307 450.44380292 C144.5408405 450.45209365 130.01997057 450.4774157 115.49905404 450.50991771 C100.56676001 450.54306601 85.63450786 450.56100691 70.70217687 450.56419533 C62.32801232 450.56635341 53.95396822 450.57499836 45.57983971 450.60065651 C38.44427861 450.6224701 31.30886723 450.63036202 24.17327657 450.62068973 C20.53957775 450.61617543 16.90618712 450.61786115 13.27253151 450.63745117 C-21.63636781 450.81515468 -50.09058778 443.04861482 -75.47370911 418.20967102 C-93.97356807 399.59824332 -104.37567911 373.41877341 -104.37088013 347.328125 C-104.37455682 346.24861928 -104.3782335 345.16911357 -104.38202161 344.05689555 C-104.39302218 340.44464853 -104.39689617 336.83243031 -104.40071106 333.22016907 C-104.40697857 330.62768463 -104.41362563 328.03520108 -104.42062378 325.44271851 C-104.4403372 317.66647112 -104.45044871 309.89022253 -104.45935157 302.11395642 C-104.46374361 298.44380673 -104.4691081 294.77365847 -104.47434044 291.1035099 C-104.49134898 278.88853982 -104.50583988 266.67357061 -104.51308918 254.45859051 C-104.5149988 251.29252814 -104.51691917 248.12646578 -104.51887512 244.96040344 C-104.51935886 244.17358001 -104.5198426 243.38675658 -104.520341 242.57609002 C-104.52862917 229.84959293 -104.5539472 217.12319021 -104.5864558 204.39673426 C-104.61962457 191.3041002 -104.63754685 178.21151392 -104.64073342 165.11883765 C-104.64288966 157.77865576 -104.65150717 150.43861139 -104.6771946 143.09847069 C-104.70133471 136.18485485 -104.70466607 129.27148899 -104.69443321 122.35783958 C-104.69394027 119.83205849 -104.70018873 117.30626483 -104.71398926 114.78052139 C-104.88759024 81.10089267 -96.12866767 53.26197587 -72.28620911 28.89717102 C-53.1354892 9.86125271 -26.72632593 -0.00429851 0 0 Z " fill="#000000" transform="translate(104.22370910644531,-0.1471710205078125)"/>
<path d="M0 0 C0.73243927 0.00215515 1.46487854 0.0043103 2.21951294 0.00653076 C30.69946928 0.14115097 56.2775653 8.09278951 79.08203125 25.30859375 C81.75971239 27.43857376 81.75971239 27.43857376 84.875 28.3125 C86.94875519 27.18387993 86.94875519 27.18387993 89.125 25.4375 C112.00562936 8.80006124 137.36938272 -0.14617763 165.8125 -0.0625 C166.54043762 -0.06162384 167.26837524 -0.06074768 168.01837158 -0.05984497 C192.53447313 0.03727845 215.15570405 5.96331875 235.875 19.3125 C236.43461426 19.66618652 236.99422852 20.01987305 237.57080078 20.38427734 C267.93483791 39.79961866 286.56946823 70.99469555 294.40966797 105.67773438 C302.21799807 142.73054362 293.822303 182.35800065 273.875 214.3125 C263.5719076 229.99406143 250.36589781 243.56253462 236.41796875 256.0234375 C234.24563826 257.97886863 232.16999846 259.97614202 230.125 262.0625 C222.23874782 270.04422739 213.94815387 278.33888934 202.1875 278.625 C195.50944561 278.54444446 191.01617026 277.2713702 186.125 272.6640625 C180.42820867 266.39211436 179.38955769 260.91468263 179.578125 252.5234375 C180.6651257 240.76666679 191.3161684 233.41168377 199.7109375 226.1875 C227.3323325 202.25560542 249.65134451 178.43919089 252.875 140.3125 C254.46701538 115.78987713 247.08098023 91.57085013 231.09375 72.8125 C216.77933901 56.68358621 198.31345311 46.87530884 176.875 44.3125 C152.70331511 42.92399923 131.893091 48.90208581 111.875 62.3125 C110.52921875 63.09367187 110.52921875 63.09367187 109.15625 63.890625 C105.52356454 67.74724313 104.82979272 72.38631599 103.5625 77.4375 C96.99517073 101.61878039 85.9169316 121.44217015 69.015625 139.953125 C67.15746533 142.0011696 65.35472579 144.0820697 63.5625 146.1875 C59.1158212 151.30065993 54.25729276 156.01715262 49.43310547 160.77026367 C47.23852923 162.94248838 45.05750946 165.12815581 42.875 167.3125 C36.20833333 173.97916667 29.54166667 180.64583333 22.875 187.3125 C21.99062256 188.20211426 21.10624512 189.09172852 20.19506836 190.00830078 C18.33322585 191.85740839 16.47173611 193.53864675 14.4375 195.1875 C11.37517344 197.77154562 8.83287103 200.57095902 6.27734375 203.6484375 C2.85452395 207.71005654 -0.99428148 211.00792519 -5.125 214.3125 C-8.26212141 217.28004728 -11.10766434 220.43208358 -13.9375 223.6875 C-17.18866863 227.38731761 -20.63383619 230.59128407 -24.390625 233.765625 C-26.28125549 235.36521408 -26.28125549 235.36521408 -28.125 237.8125 C-30.47564989 240.75081236 -33.11307751 243.03908552 -35.97265625 245.47265625 C-37.41715434 246.70742685 -38.84172425 247.96586741 -40.24609375 249.24609375 C-40.92800781 249.86613281 -41.60992187 250.48617187 -42.3125 251.125 C-43.23095703 251.96998047 -43.23095703 251.96998047 -44.16796875 252.83203125 C-49.88858365 257.1596022 -56.24393923 257.19340875 -63.125 256.3125 C-84.22861309 250.16198175 -100.15322401 225.60527959 -110.14404297 207.46191406 C-129.30748822 172.01539109 -134.41350118 130.66682402 -122.97021484 91.93457031 C-117.20636872 74.0536612 -108.30061846 58.56458052 -96.125 44.3125 C-95.43921875 43.49265625 -94.7534375 42.6728125 -94.046875 41.828125 C-76.7372365 21.77883148 -52.80823587 8.28864658 -27.125 2.3125 C-26.33722168 2.12631104 -25.54944336 1.94012207 -24.73779297 1.74829102 C-16.51790883 0.0209018 -8.35661348 -0.04409325 0 0 Z " fill="#FDFDFD" transform="translate(158.125,40.6875)"/>
<path d="M0 0 C1.609375 2.23046875 1.609375 2.23046875 1.51953125 5.5390625 C-3.41528903 25.55367693 -15.0377119 41.43207885 -28.765625 56.35546875 C-29.38518066 57.032146 -30.00473633 57.70882324 -30.64306641 58.40600586 C-31.51970947 59.34391968 -31.51970947 59.34391968 -32.4140625 60.30078125 C-33.20176025 61.14793701 -33.20176025 61.14793701 -34.00537109 62.01220703 C-35.390625 63.23046875 -35.390625 63.23046875 -37.390625 63.23046875 C-37.74290161 64.07170288 -37.74290161 64.07170288 -38.10229492 64.92993164 C-39.70332604 67.78885077 -41.67200662 69.73632563 -44.00390625 72.0390625 C-44.92236328 72.95107422 -45.84082031 73.86308594 -46.78710938 74.80273438 C-47.75898675 75.75794259 -48.730993 76.71301968 -49.703125 77.66796875 C-50.66387346 78.61867397 -51.62416457 79.5698416 -52.58398438 80.52148438 C-54.36271762 82.28281561 -56.14350008 84.04208156 -57.92700195 85.79858398 C-61.25313923 89.08187141 -64.55712502 92.38642234 -67.84106445 95.71191406 C-70.05600194 97.89991512 -72.31731305 100.01739762 -74.62239075 102.10968018 C-83.26142342 109.95442677 -91.47912873 118.20548736 -99.703125 126.48046875 C-101.13713224 127.91950759 -102.57137575 129.35831104 -104.00585938 130.796875 C-107.47016745 134.27204202 -110.93129835 137.75034327 -114.390625 141.23046875 C-118.98681947 137.73027878 -121.75386547 134.23468642 -124.828125 129.41796875 C-125.30967041 128.66531738 -125.79121582 127.91266602 -126.28735352 127.13720703 C-140.88632146 103.68328889 -145.41058987 73.84724641 -139.41796875 46.921875 C-132.65203648 22.6108256 -117.03098731 2.54044764 -95.01855469 -10.01611328 C-64.56802085 -26.26576061 -26.99566881 -19.98208819 0 0 Z " fill="#000000" transform="translate(214.390625,102.76953125)"/>
<path d="M0 0 C6.59948786 5.3736918 9.23870271 11.92034416 10.27734375 20.21484375 C11.07015767 37.75188772 0.7430279 53.24116532 -10.54428482 65.70529175 C-14.49995578 69.90170988 -18.60331053 73.94926333 -22.70703125 78 C-24.00421803 79.29157106 -25.30072892 80.58382125 -26.59660339 81.87670898 C-29.9728793 85.24166094 -33.35806101 88.59750576 -36.74536133 91.95135498 C-40.19446163 95.36959792 -43.63494937 98.79648588 -47.07617188 102.22265625 C-52.62664002 107.74692362 -58.18213425 113.2660716 -63.74476624 118.77809143 C-66.06503282 121.07778048 -68.37870221 123.38270273 -70.67655945 125.70483398 C-73.31819207 128.31431991 -76.14818988 130.62349156 -79 133 C-80.67781456 134.6554437 -82.34310825 136.32361541 -84 138 C-95 149 -95 149 -97.13085938 151.12866211 C-100.16923685 154.1669693 -103.20017353 157.2126757 -106.23193359 160.25758362 C-109.59877705 163.63780154 -112.96825863 167.01538441 -116.33789062 170.39282227 C-118.11352561 172.17350537 -119.88826474 173.95508224 -121.66210938 175.73754883 C-124.23070903 178.31828698 -126.80253254 180.8957742 -129.375 183.47265625 C-130.16471191 184.26752945 -130.95442383 185.06240265 -131.76806641 185.88136292 C-135.37012358 189.48378564 -138.94057541 192.90609827 -143 196 C-145.96792042 198.81171408 -148.66587122 201.76626144 -151.3125 204.875 C-154.3124407 208.34347808 -157.52348191 211.31926608 -161.02734375 214.26953125 C-163.00081712 216.0007168 -164.76834762 217.83543471 -166.5625 219.75 C-171.81310348 224.97711085 -176.16384977 226.16903771 -183.4375 226.4375 C-190.99978503 226.23780705 -195.3843773 224.49937281 -200.8125 219.3125 C-204.75976902 213.33520691 -207.43679214 206.25110053 -206 199 C-203.74937075 192.96127461 -200.87945762 188.26952542 -196 184 C-194.32344665 182.34239076 -192.65909503 180.67498481 -191 179 C-187.89849965 175.87234064 -184.79363534 172.74805593 -181.6875 169.625 C-180.87087891 168.8 -180.05425781 167.975 -179.21289062 167.125 C-178.40400391 166.31289063 -177.59511719 165.50078125 -176.76171875 164.6640625 C-176.03944092 163.93654785 -175.31716309 163.2090332 -174.57299805 162.45947266 C-172.52642825 160.50320127 -170.45319493 158.65341417 -168.30786133 156.81005859 C-163.41412409 152.5568263 -158.8730261 147.97992861 -154.3125 143.375 C-152.95958862 142.01640869 -152.95958862 142.01640869 -151.5793457 140.63037109 C-148.71711436 137.75600431 -145.85804198 134.8785306 -143 132 C-139.23225667 128.20524662 -135.46084455 124.41418619 -131.6875 120.625 C-130.40903198 119.33408447 -130.40903198 119.33408447 -129.10473633 118.01708984 C-124.8739697 113.76916411 -120.57170392 109.70875941 -116.02636719 105.80151367 C-112.02369346 102.24299206 -108.29810183 98.39824294 -104.53125 94.59375 C-103.65150513 93.71021851 -102.77176025 92.82668701 -101.86535645 91.91638184 C-99.07445494 89.11334867 -96.28670768 86.30720084 -93.5 83.5 C-89.82601262 79.7989945 -86.14834398 76.10168178 -82.46875 72.40625 C-81.63831177 71.56751343 -80.80787354 70.72877686 -79.95227051 69.86462402 C-75.68587719 65.58049103 -71.35624741 61.45056062 -66.75395203 57.52786255 C-63.79848223 54.95336134 -61.06090806 52.16682156 -58.3125 49.375 C-57.77044922 48.8284375 -57.22839844 48.281875 -56.66992188 47.71875 C-55.60795207 46.64781302 -54.54727723 45.57559004 -53.48803711 44.50195312 C-52.11333291 43.11439279 -50.72520891 41.74016247 -49.3359375 40.3671875 C-43.036606 33.98358401 -39.41716766 28.86452831 -38 20 C-35.80891294 10.30241096 -33.10233325 4.22849408 -25 -1.80078125 C-17.25170806 -6.44672974 -7.38036626 -4.31842918 0 0 Z " fill="#FDFCFD" transform="translate(352,139)"/>
<path d="M0 0 C5.05597369 3.57617651 9.57884584 7.86153752 11.5625 13.8125 C12.22214103 21.71737857 12.14874372 28.17200128 7.5625 34.8125 C6.69625 36.0809375 6.69625 36.0809375 5.8125 37.375 C3.9495801 39.39316323 2.11181782 41.09173194 0.02734375 42.86328125 C-4.91875616 47.16474729 -9.51437043 51.7819801 -14.125 56.4375 C-15.02694092 57.34322754 -15.92888184 58.24895508 -16.8581543 59.18212891 C-19.72038564 62.05649569 -22.57945802 64.9339694 -25.4375 67.8125 C-29.20524333 71.60725338 -32.97665545 75.39831381 -36.75 79.1875 C-38.02846802 80.47841553 -38.02846802 80.47841553 -39.33276367 81.79541016 C-59.29306403 101.83666533 -59.29306403 101.83666533 -69.625 102.0625 C-75.67302591 101.933396 -80.87933696 101.12215577 -85.48828125 96.9609375 C-90.59032808 90.98214142 -92.70699464 85.12072773 -92.30859375 77.2734375 C-90.69284201 66.28632568 -83.06749663 58.42361225 -74.87426758 51.48950195 C-67.81263377 45.48081235 -61.38879335 38.83768378 -54.875 32.25 C-52.50170324 29.84986105 -50.12493978 27.45323142 -47.74609375 25.05859375 C-47.21672714 24.5209288 -46.68736053 23.98326385 -46.14195251 23.42930603 C-42.89719358 20.16370316 -39.53658457 17.12850044 -35.98500061 14.19837952 C-34.17591348 12.65141914 -34.17591348 12.65141914 -32 9.8125 C-23.73352472 0.13467528 -12.48298785 -4.31230489 0 0 Z " fill="#FCFCFD" transform="translate(308.4375,330.1875)"/>
<path d="M0 0 C5.061356 3.75150759 7.24825202 9.10803732 9.1796875 14.90234375 C10.09683779 22.1192641 8.35972298 28.4287001 5.1796875 34.90234375 C2.7421875 37.83984375 2.7421875 37.83984375 0.1796875 39.90234375 C-0.6246875 40.62421875 -1.4290625 41.34609375 -2.2578125 42.08984375 C-8.54059352 46.53376203 -15.35272998 46.67981699 -22.8203125 45.90234375 C-31.35678521 43.53110133 -36.2730709 38.37281209 -40.8203125 30.90234375 C-43.20307577 23.75405393 -42.93384197 15.24382363 -39.7578125 8.40234375 C-36.02883064 2.02327085 -31.05596145 -2.34830004 -23.98046875 -4.625 C-15.15691084 -6.55565191 -7.65082983 -4.61348322 0 0 Z " fill="#FCFCFC" transform="translate(159.8203125,140.09765625)"/>
<path d="M0 0 C-1 3 -1 3 -3 4 C-3 4.66 -3 5.32 -3 6 C-4.42578125 7.47265625 -4.42578125 7.47265625 -6.3125 9.0625 C-7.23482422 9.85333984 -7.23482422 9.85333984 -8.17578125 10.66015625 C-10 12 -10 12 -13 13 C-13.66 12.67 -14.32 12.34 -15 12 C-15.33 12.66 -15.66 13.32 -16 14 C-16 11 -16 11 -14.71484375 9.5703125 C-2.94594595 0 -2.94594595 0 0 0 Z M-17 13 C-16.67 14.32 -16.34 15.64 -16 17 C-16.99 17.33 -17.98 17.66 -19 18 C-20.15521502 20.47130918 -20.15521502 20.47130918 -21 23 C-22 24 -22 24 -24.4375 25.6875 C-27.3595147 28.3244401 -28.05863962 30.23455846 -29 34 C-33.75 35.125 -33.75 35.125 -36 34 C-33.5056794 28.34797566 -23.75764995 13 -17 13 Z " fill="#F2F7F8" transform="translate(92,60)"/>
<path d="M0 0 C0.66 0.33 1.32 0.66 2 1 C-1.92888318 5.7051063 -5.84101419 9.9373933 -10.71484375 13.67578125 C-12.34822166 15.05125365 -12.34822166 15.05125365 -12 18 C-12.70125 18.185625 -13.4025 18.37125 -14.125 18.5625 C-18.09640051 20.54820026 -20.3073418 23.53933276 -23 27 C-23.66 26.34 -24.32 25.68 -25 25 C-16.75 16.75 -8.5 8.5 0 0 Z " fill="#EFF6F9" transform="translate(139,204)"/>
<path d="M0 0 C0.33 1.32 0.66 2.64 1 4 C-0.98 4.99 -0.98 4.99 -3 6 C-3 5.34 -3 4.68 -3 4 C-3.74443359 4.58007812 -3.74443359 4.58007812 -4.50390625 5.171875 C-16.01980198 14 -16.01980198 14 -20 14 C-20 13.34 -20 12.68 -20 12 C-5.24937028 0 -5.24937028 0 0 0 Z " fill="#F2F8F8" transform="translate(263,57)"/>
<path d="M0 0 C0.33 0.99 0.66 1.98 1 3 C1.66 3.33 2.32 3.66 3 4 C2.01 4.66 1.02 5.32 0 6 C-0.66 5.67 -1.32 5.34 -2 5 C-2.33 6.32 -2.66 7.64 -3 9 C-4.32 8.67 -5.64 8.34 -7 8 C-7 7.34 -7 6.68 -7 6 C-5.46875 4.4921875 -5.46875 4.4921875 -3.5 2.875 C-2.8503125 2.33617187 -2.200625 1.79734375 -1.53125 1.2421875 C-1.0259375 0.83226562 -0.520625 0.42234375 0 0 Z " fill="#F3F8F9" transform="translate(308,174)"/>
<path d="M0 0 C0.66 0.33 1.32 0.66 2 1 C1.5359375 2.1446875 1.5359375 2.1446875 1.0625 3.3125 C0.32106407 5.18789677 -0.36228217 7.08684652 -1 9 C-3.0625 9.6875 -3.0625 9.6875 -5 10 C-4.67 9.34 -4.34 8.68 -4 8 C-4.66 7.34 -5.32 6.68 -6 6 C-4.02 4.02 -2.04 2.04 0 0 Z " fill="#F2F7F7" transform="translate(373,253)"/>
<path d="M0 0 C0.66 0.33 1.32 0.66 2 1 C2 1.66 2 2.32 2 3 C1.34 3.66 0.68 4.32 0 5 C-0.69748583 6.31747324 -1.36959957 7.64914193 -2 9 C-3.65 8.67 -5.3 8.34 -7 8 C-6.02133662 6.85373678 -5.04205413 5.70800212 -4.0625 4.5625 C-3.51722656 3.92441406 -2.97195313 3.28632813 -2.41015625 2.62890625 C-1.63204305 1.73008851 -0.84063472 0.84063472 0 0 Z " fill="#F2F8F9" transform="translate(385,241)"/>
<path d="M0 0 C3.91402949 1.26941497 5.79072873 2.51167694 8 6 C6 7 6 7 3 7 C1.79371992 4.66785852 0.8345262 2.50357861 0 0 Z " fill="#F0F6F7" transform="translate(233,64)"/>
<path d="M0 0 C2 1 2 1 2.6328125 2.84765625 C2.79523438 3.57855469 2.95765625 4.30945313 3.125 5.0625 C3.29257813 5.79597656 3.46015625 6.52945313 3.6328125 7.28515625 C3.75398438 7.85105469 3.87515625 8.41695312 4 9 C1.525 8.01 1.525 8.01 -1 7 C-0.67 4.69 -0.34 2.38 0 0 Z " fill="#F2F7FA" transform="translate(75,201)"/>
<path d="M0 0 C0.66 0.33 1.32 0.66 2 1 C2 2.98 2 4.96 2 7 C0.35 7.66 -1.3 8.32 -3 9 C-2.01 6.03 -1.02 3.06 0 0 Z " fill="#F0F4F7" transform="translate(44,111)"/>
<path d="M0 0 C0.99 0.33 1.98 0.66 3 1 C3 1.66 3 2.32 3 3 C2.34 3 1.68 3 1 3 C0.67 4.32 0.34 5.64 0 7 C-0.99 6.67 -1.98 6.34 -3 6 C-2.01 4.02 -1.02 2.04 0 0 Z " fill="#F0F3F5" transform="translate(205,133)"/>
<path d="M0 0 C2.91517292 1.07401108 4.77810176 1.77810176 7 4 C4.625 4.625 4.625 4.625 2 5 C1.34 4.34 0.68 3.68 0 3 C0 2.01 0 1.02 0 0 Z " fill="#EEF6F7" transform="translate(219,55)"/>
<path d="M0 0 C2.0625 0.4375 2.0625 0.4375 4 1 C3.34 2.98 2.68 4.96 2 7 C0 4 0 4 -1 1 C-0.67 0.67 -0.34 0.34 0 0 Z " fill="#F3F8FB" transform="translate(404,133)"/>
<path d="M0 0 C1.98 0.66 3.96 1.32 6 2 C6 2.99 6 3.98 6 5 C3.69 4.34 1.38 3.68 -1 3 C-0.67 2.01 -0.34 1.02 0 0 Z " fill="#F2F8F9" transform="translate(369,48)"/>
</svg>
