<svg width="160" height="160" viewBox="0 0 160 160" fill="none" xmlns="http://www.w3.org/2000/svg" role="img" aria-labelledby="title desc">
  <title id="title">Logotipo del proyecto MesasYa</title>
  <desc id="desc">Marca verde con mesa estilizada y formas geométricas.</desc>
  <defs>
    <linearGradient id="mesasya-gradient" x1="30" y1="24" x2="130" y2="140" gradientUnits="userSpaceOnUse">
      <stop offset="0" stop-color="#34d399" />
      <stop offset="1" stop-color="#047857" />
    </linearGradient>
    <radialGradient id="mesasya-light" cx="0" cy="0" r="1" gradientUnits="userSpaceOnUse" gradientTransform="translate(70 60) rotate(40) scale(78)">
      <stop offset="0" stop-color="#d1fae5" stop-opacity="0.9" />
      <stop offset="1" stop-color="#bbf7d0" stop-opacity="0.25" />
    </radialGradient>
  </defs>
  <rect x="12" y="12" width="136" height="136" rx="36" fill="url(#mesasya-gradient)" />
  <rect x="22" y="22" width="116" height="116" rx="32" fill="url(#mesasya-light)" />
  <path d="M48 64h64c8.837 0 16 7.163 16 16s-7.163 16-16 16H48c-8.837 0-16-7.163-16-16s7.163-16 16-16Z" fill="#064e3b" fill-opacity="0.85" />
  <path d="M56 68h48v8H56zm0 16h48v8H56z" fill="#6ee7b7" />
  <path d="M52 52h12v24H52zM96 52h12v24H96z" fill="#ecfdf5" />
  <circle cx="46" cy="58" r="6" fill="#10b981" />
  <circle cx="114" cy="58" r="6" fill="#10b981" />
</svg>
