<?xml version="1.0" encoding="utf-8"?>
<svg xmlns="http://www.w3.org/2000/svg" viewBox="0 0 32 32" role="img" aria-labelledby="title desc">
  <defs>
    <linearGradient id="grad" x1="0%" y1="0%" x2="100%" y2="100%">
      <stop offset="0%" style="stop-color:#3E5C42;stop-opacity:1"/>
      <stop offset="100%" style="stop-color:#7C9A72;stop-opacity:1"/>
    </linearGradient>
  </defs>
  <title id="title">Portfolio News</title>
  <desc id="desc">
    Marca de visualizador de noticias de portfolio con una O y una noticia.
  </desc>
  <circle cx="16" cy="16" r="15" fill="url(#grad)"/>
<!--Letter O-->
  <path d="M 16 8.7 C 11.7 8.7 8.6 11.8 8.6 16 C 8.6 20.2 11.7 23.3 16 23.3 C 20.3 23.3 23.4 20.2 23.4 16 C 23.4 11.8 20.3 8.7 16 8.7 Z M 16 12 C 18.2 12 19.9 13.7 19.9 16 C 19.9 18.3 18.2 20 16 20 C 13.8 20 12.1 18.3 12.1 16 C 12.1 13.7 13.8 12 16 12 Z" fill="white"/>
  <circle cx="23" cy="9" r="3.5" fill="#C79762"/>
  <rect x="21.35" y="9.1" width="0.65" height="1.35" rx="0.15" fill="white"/>
  <rect x="22.65" y="7.55" width="0.65" height="2.9" rx="0.15" fill="white"/>
  <rect x="23.95" y="8.35" width="0.65" height="2.1" rx="0.15" fill="white"/>
</svg>
