<svg width="256" height="256" viewBox="0 0 256 256" fill="none" xmlns="http://www.w3.org/2000/svg">
    <rect width="256" height="256" rx="56" fill="#0F766E"/>
    <path d="M68 86C68 77.1634 75.1634 70 84 70H172C180.837 70 188 77.1634 188 86C188 94.8366 180.837 102 172 102H140V186C140 194.837 132.837 202 124 202H108C99.1634 202 92 194.837 92 186V102H84C75.1634 102 68 94.8366 68 86Z" fill="white"/>
    <path d="M172 118C180.837 118 188 125.163 188 134V186C188 194.837 180.837 202 172 202H156C147.163 202 140 194.837 140 186V134C140 125.163 147.163 118 156 118H172Z" fill="#5EEAD4"/>
</svg>
