<?xml version="1.0" encoding="UTF-8"?>
<svg width="160" height="160" viewBox="0 0 160 160" fill="none" xmlns="http://www.w3.org/2000/svg" role="img" aria-labelledby="tratoLogoTitle tratoLogoDesc">
  <title id="tratoLogoTitle">Trato CRM logo</title>
  <desc id="tratoLogoDesc">Rounded gradient square with an abstract handshake forming the letter T</desc>
  <defs>
    <linearGradient id="tratoGradient" x1="24" y1="20" x2="138" y2="152" gradientUnits="userSpaceOnUse">
      <stop offset="0" stop-color="#FF8C7F" />
      <stop offset="0.52" stop-color="#F97068" />
      <stop offset="1" stop-color="#E34650" />
    </linearGradient>
    <linearGradient id="tratoHighlight" x1="56" y1="52" x2="112" y2="112" gradientUnits="userSpaceOnUse">
      <stop offset="0" stop-color="#FFE6E3" />
      <stop offset="1" stop-color="#F5B8B3" />
    </linearGradient>
  </defs>
  <rect x="12" y="12" width="136" height="136" rx="32" fill="url(#tratoGradient)" />
  <path d="M50 64C50 52.954 58.954 44 70 44H96C107.046 44 116 52.954 116 64C116 75.046 107.046 84 96 84H90.5L80 94.5L69.5 84H64C52.9543 84 44 75.046 44 64Z" fill="white" />
  <path d="M58 76C58 67.7157 64.7157 61 73 61H92C100.284 61 107 67.7157 107 76C107 84.2843 100.284 91 92 91H88.6L80 99.6L71.4 91H68C64.6863 91 62 88.3137 62 85V82C62 78.6863 59.3137 76 56 76H58Z" fill="url(#tratoHighlight)" />
  <path d="M76 100.5L84 92.5L91.5 100H97C103.627 100 109 94.6274 109 88V86C109 81.5817 112.582 78 117 78C121.418 78 125 81.5817 125 86V92C125 105.255 114.255 116 101 116H88.5C83.7294 116 79.1762 113.891 76 110.111L72.25 105.777C68.146 101.027 61.2843 99.7445 55.75 102.75V102.75C50.774 105.45 44.75 102.206 44.75 96.5V90C44.75 84.201 39.799 79.25 34 79.25H32C26.201 79.25 21.25 74.299 21.25 68.5V64.5C21.25 51.5213 31.7713 41 44.75 41H60C65.5228 41 70 45.4772 70 51V61" stroke="white" stroke-width="6" stroke-linecap="round" stroke-linejoin="round" opacity="0.4" />
  <circle cx="80" cy="102" r="8" fill="#F97068" stroke="white" stroke-width="3" />
</svg>
