<?xml version="1.0" standalone="no"?>
<svg xmlns:xlink="http://www.w3.org/1999/xlink" id="wave" style="transform:rotate(180deg); transition: 0.3s" viewBox="0 0 1440 120" version="1.1" xmlns="http://www.w3.org/2000/svg"><defs><linearGradient id="sw-gradient-0" x1="0" x2="0" y1="1" y2="0"><stop stop-color="rgba(243, 106, 62, 1)" offset="0%"/><stop stop-color="rgba(255, 179, 11, 1)" offset="100%"/></linearGradient></defs><path style="transform:translate(0, 0px); opacity:1" fill="url(#sw-gradient-0)" d="M0,108L34.3,98C68.6,88,137,68,206,58C274.3,48,343,48,411,44C480,40,549,32,617,38C685.7,44,754,64,823,64C891.4,64,960,44,1029,30C1097.1,16,1166,8,1234,20C1302.9,32,1371,64,1440,68C1508.6,72,1577,48,1646,34C1714.3,20,1783,16,1851,12C1920,8,1989,4,2057,10C2125.7,16,2194,32,2263,34C2331.4,36,2400,24,2469,28C2537.1,32,2606,52,2674,52C2742.9,52,2811,32,2880,38C2948.6,44,3017,76,3086,76C3154.3,76,3223,44,3291,30C3360,16,3429,20,3497,24C3565.7,28,3634,32,3703,38C3771.4,44,3840,52,3909,56C3977.1,60,4046,60,4114,68C4182.9,76,4251,92,4320,88C4388.6,84,4457,60,4526,50C4594.3,40,4663,44,4731,46C4800,48,4869,48,4903,48L4937.1,48L4937.1,120L4902.9,120C4868.6,120,4800,120,4731,120C4662.9,120,4594,120,4526,120C4457.1,120,4389,120,4320,120C4251.4,120,4183,120,4114,120C4045.7,120,3977,120,3909,120C3840,120,3771,120,3703,120C3634.3,120,3566,120,3497,120C3428.6,120,3360,120,3291,120C3222.9,120,3154,120,3086,120C3017.1,120,2949,120,2880,120C2811.4,120,2743,120,2674,120C2605.7,120,2537,120,2469,120C2400,120,2331,120,2263,120C2194.3,120,2126,120,2057,120C1988.6,120,1920,120,1851,120C1782.9,120,1714,120,1646,120C1577.1,120,1509,120,1440,120C1371.4,120,1303,120,1234,120C1165.7,120,1097,120,1029,120C960,120,891,120,823,120C754.3,120,686,120,617,120C548.6,120,480,120,411,120C342.9,120,274,120,206,120C137.1,120,69,120,34,120L0,120Z"/><defs><linearGradient id="sw-gradient-1" x1="0" x2="0" y1="1" y2="0"><stop stop-color="rgba(243, 106, 62, 1)" offset="0%"/><stop stop-color="rgba(255, 179, 11, 1)" offset="100%"/></linearGradient></defs><path style="transform:translate(0, 50px); opacity:0.9" fill="url(#sw-gradient-1)" d="M0,108L34.3,92C68.6,76,137,44,206,26C274.3,8,343,4,411,6C480,8,549,16,617,32C685.7,48,754,72,823,70C891.4,68,960,40,1029,30C1097.1,20,1166,28,1234,34C1302.9,40,1371,44,1440,54C1508.6,64,1577,80,1646,84C1714.3,88,1783,80,1851,70C1920,60,1989,48,2057,44C2125.7,40,2194,44,2263,54C2331.4,64,2400,80,2469,78C2537.1,76,2606,56,2674,42C2742.9,28,2811,20,2880,26C2948.6,32,3017,52,3086,60C3154.3,68,3223,64,3291,54C3360,44,3429,28,3497,22C3565.7,16,3634,20,3703,30C3771.4,40,3840,56,3909,52C3977.1,48,4046,24,4114,30C4182.9,36,4251,72,4320,78C4388.6,84,4457,60,4526,60C4594.3,60,4663,84,4731,90C4800,96,4869,84,4903,78L4937.1,72L4937.1,120L4902.9,120C4868.6,120,4800,120,4731,120C4662.9,120,4594,120,4526,120C4457.1,120,4389,120,4320,120C4251.4,120,4183,120,4114,120C4045.7,120,3977,120,3909,120C3840,120,3771,120,3703,120C3634.3,120,3566,120,3497,120C3428.6,120,3360,120,3291,120C3222.9,120,3154,120,3086,120C3017.1,120,2949,120,2880,120C2811.4,120,2743,120,2674,120C2605.7,120,2537,120,2469,120C2400,120,2331,120,2263,120C2194.3,120,2126,120,2057,120C1988.6,120,1920,120,1851,120C1782.9,120,1714,120,1646,120C1577.1,120,1509,120,1440,120C1371.4,120,1303,120,1234,120C1165.7,120,1097,120,1029,120C960,120,891,120,823,120C754.3,120,686,120,617,120C548.6,120,480,120,411,120C342.9,120,274,120,206,120C137.1,120,69,120,34,120L0,120Z"/></svg>