<?xml version="1.0" standalone="no"?>
<svg xmlns:xlink="http://www.w3.org/1999/xlink" id="wave" style="transform:rotate(0deg); transition: 0.3s" viewBox="0 0 1440 120" version="1.1" xmlns="http://www.w3.org/2000/svg"><defs><linearGradient id="sw-gradient-0" x1="0" x2="0" y1="1" y2="0"><stop stop-color="rgba(243, 106, 62, 1)" offset="0%"/><stop stop-color="rgba(255, 179, 11, 1)" offset="100%"/></linearGradient></defs><path style="transform:translate(0, 0px); opacity:1" fill="url(#sw-gradient-0)" d="M0,24L34.3,36C68.6,48,137,72,206,72C274.3,72,343,48,411,48C480,48,549,72,617,86C685.7,100,754,104,823,88C891.4,72,960,36,1029,24C1097.1,12,1166,24,1234,36C1302.9,48,1371,60,1440,66C1508.6,72,1577,72,1646,64C1714.3,56,1783,40,1851,36C1920,32,1989,40,2057,38C2125.7,36,2194,24,2263,22C2331.4,20,2400,28,2469,32C2537.1,36,2606,36,2674,46C2742.9,56,2811,76,2880,88C2948.6,100,3017,104,3086,102C3154.3,100,3223,92,3291,78C3360,64,3429,44,3497,42C3565.7,40,3634,56,3703,68C3771.4,80,3840,88,3909,90C3977.1,92,4046,88,4114,78C4182.9,68,4251,52,4320,46C4388.6,40,4457,44,4526,44C4594.3,44,4663,40,4731,44C4800,48,4869,60,4903,66L4937.1,72L4937.1,120L4902.9,120C4868.6,120,4800,120,4731,120C4662.9,120,4594,120,4526,120C4457.1,120,4389,120,4320,120C4251.4,120,4183,120,4114,120C4045.7,120,3977,120,3909,120C3840,120,3771,120,3703,120C3634.3,120,3566,120,3497,120C3428.6,120,3360,120,3291,120C3222.9,120,3154,120,3086,120C3017.1,120,2949,120,2880,120C2811.4,120,2743,120,2674,120C2605.7,120,2537,120,2469,120C2400,120,2331,120,2263,120C2194.3,120,2126,120,2057,120C1988.6,120,1920,120,1851,120C1782.9,120,1714,120,1646,120C1577.1,120,1509,120,1440,120C1371.4,120,1303,120,1234,120C1165.7,120,1097,120,1029,120C960,120,891,120,823,120C754.3,120,686,120,617,120C548.6,120,480,120,411,120C342.9,120,274,120,206,120C137.1,120,69,120,34,120L0,120Z"/><defs><linearGradient id="sw-gradient-1" x1="0" x2="0" y1="1" y2="0"><stop stop-color="rgba(243, 106, 62, 1)" offset="0%"/><stop stop-color="rgba(255, 179, 11, 1)" offset="100%"/></linearGradient></defs><path style="transform:translate(0, 50px); opacity:0.9" fill="url(#sw-gradient-1)" d="M0,84L34.3,88C68.6,92,137,100,206,100C274.3,100,343,92,411,76C480,60,549,36,617,22C685.7,8,754,4,823,12C891.4,20,960,40,1029,40C1097.1,40,1166,20,1234,22C1302.9,24,1371,48,1440,50C1508.6,52,1577,32,1646,30C1714.3,28,1783,44,1851,42C1920,40,1989,20,2057,10C2125.7,0,2194,0,2263,2C2331.4,4,2400,8,2469,10C2537.1,12,2606,12,2674,10C2742.9,8,2811,4,2880,8C2948.6,12,3017,24,3086,40C3154.3,56,3223,76,3291,82C3360,88,3429,80,3497,72C3565.7,64,3634,56,3703,58C3771.4,60,3840,72,3909,74C3977.1,76,4046,68,4114,66C4182.9,64,4251,68,4320,58C4388.6,48,4457,24,4526,16C4594.3,8,4663,16,4731,22C4800,28,4869,32,4903,34L4937.1,36L4937.1,120L4902.9,120C4868.6,120,4800,120,4731,120C4662.9,120,4594,120,4526,120C4457.1,120,4389,120,4320,120C4251.4,120,4183,120,4114,120C4045.7,120,3977,120,3909,120C3840,120,3771,120,3703,120C3634.3,120,3566,120,3497,120C3428.6,120,3360,120,3291,120C3222.9,120,3154,120,3086,120C3017.1,120,2949,120,2880,120C2811.4,120,2743,120,2674,120C2605.7,120,2537,120,2469,120C2400,120,2331,120,2263,120C2194.3,120,2126,120,2057,120C1988.6,120,1920,120,1851,120C1782.9,120,1714,120,1646,120C1577.1,120,1509,120,1440,120C1371.4,120,1303,120,1234,120C1165.7,120,1097,120,1029,120C960,120,891,120,823,120C754.3,120,686,120,617,120C548.6,120,480,120,411,120C342.9,120,274,120,206,120C137.1,120,69,120,34,120L0,120Z"/></svg>