<?xml version="1.0" encoding="UTF-8"?>
<svg id="Capa_2" data-name="Capa 2" xmlns="http://www.w3.org/2000/svg" xmlns:xlink="http://www.w3.org/1999/xlink" viewBox="0 0 218.02 218.02">
  <defs>
    <style>
      .cls-1 {
        fill: none;
      }

      .cls-2 {
        fill: #e8360b;
      }

      .cls-3 {
        fill: #fff;
      }

      .cls-4 {
        clip-path: url(#clippath);
      }
    </style>
    <clipPath id="clippath">
      <rect class="cls-1" width="218.02" height="218.02" rx="29.36" ry="29.36"/>
    </clipPath>
  </defs>
  <g id="Capa_1-2" data-name="Capa 1">
    <g>
      <rect class="cls-2" width="218.02" height="218.02" rx="29.36" ry="29.36"/>
      <g class="cls-4">
        <g>
          <path class="cls-3" d="M93.81,96.27h0c-3.49,2.88-8.49,3.04-12.15.37l-39.4-28.66c-5.24-3.81-5.48-11.54-.48-15.67l18.69-15.44c4.99-4.13,12.54-2.43,15.29,3.43l20.71,44.1c1.92,4.1.83,8.98-2.66,11.86Z"/>
          <path class="cls-3" d="M124,78.53h0c-3.4.05-6.4-2.21-7.3-5.49l-9.64-35.3c-1.28-4.69,2.21-9.34,7.07-9.41l18.2-.28c4.87-.07,8.49,4.46,7.35,9.19l-8.56,35.58c-.8,3.31-3.73,5.65-7.13,5.7Z"/>
          <path class="cls-3" d="M76.01,122.45h0c.05,3.51-2.28,6.62-5.67,7.54l-36.48,9.96c-4.85,1.32-9.65-2.28-9.73-7.31l-.29-18.81c-.08-5.03,4.61-8.78,9.5-7.6l36.77,8.85c3.42.82,5.84,3.85,5.9,7.37Z"/>
          <path class="cls-3" d="M280.49,286.75c-9.77-14.71-26.29-21.95-42.87-23.6-21.95-2.18-36.92,1.64-36.92,1.64-9.45-6.54-11.48-18.71-5.44-28.94,16.54-28.01,59.27-27.21,82.05-8.89,32.49,26.13,8.54,57.99,3.18,59.79Z"/>
          <path class="cls-3" d="M284.59,318.47c-4.5,17.01-17.28,30.51-31.41,40.95-36,26.28-87.69,33.36-130.17,8.07-22.95-13.68-57.56-61.17-36.77-105.44,4.59-9.81,11.7-18.54,14.13-29.07,1.44-6.48,1.17-13.23.72-19.89-1.08-15.39-3.15-30.78-6.21-45.81-3.15-15.21-6.32-32.65,3.51-44.55,9.52-11.51,29.11-13.81,36.1-7.82,1.55,1.33-6.17,12.05,4.69,24.03,5.19,5.72,11.32,8.18,23.01,9.89,5.89,13.65,8.65,28.71,8.76,43.54.1,13.39-4.05,28.41-4.05,28.41l-17.3,17.74s22.25-14.83,23.02-16.87c7.88-21.02,28.8-50.74,7.14-71.62-6.21-5.99-15.9-7.57-22.8-8.41-16.33-1.99-24.22-13.62-25.55-22.95-.27-1.89.27-4.77.18-7.47,1.26-6.12,5.67-14.04,17.46-19.89,35.82-17.64,85.94,16.11,101.42,57.51,10.37,27.72-.37,66.25-.38,66.28,0,0-49.59-15.28-64.24,21.73-6.87,17.36,8.94,29.12,8.99,29.19,0,0-26.83,6.85-22.4,31.94,3.99,22.62,33.74,20.36,33.74,20.36,0,0-23.66-5.76-25.51-22.49-3.16-28.6,41.21-33.77,73.94-25.7,6.29,1.55,39.92,10.71,29.97,48.33Z"/>
        </g>
      </g>
    </g>
  </g>
</svg>
